<svg width="25" height="10" viewBox="0 0 25 10" fill="none" xmlns="http://www.w3.org/2000/svg">
<path d="M0.516691 5.03962H24.4846C24.7697 5.03962 25 4.80928 25 4.52418C25 4.23908 24.7697 4.00874 24.4846 4.00874H1.7618L4.88986 0.880674C5.0912 0.679331 5.0912 0.35235 4.88986 0.151007C4.68852 -0.0503357 4.36154 -0.0503357 4.16019 0.151007L0.151053 4.16015C0.00286466 4.30834 -0.0406258 4.52901 0.0399114 4.7223C0.120449 4.91398 0.308905 5.03962 0.516691 5.03962V5.03962Z" fill="black"/>
<path d="M4.53068 9.05387C4.66276 9.05387 4.79484 9.00394 4.89471 8.90246C5.09605 8.70112 5.09605 8.37414 4.89471 8.17279L0.880733 4.15882C0.67939 3.95748 0.35241 3.95748 0.151068 4.15882C-0.0502753 4.36016 -0.0502753 4.68714 0.151068 4.88849L4.16504 8.90246C4.26652 9.00394 4.3986 9.05387 4.53068 9.05387Z" fill="black"/>
</svg>
