<svg width="29" height="51" viewBox="0 0 29 51" fill="none" xmlns="http://www.w3.org/2000/svg">
<path d="M17.9128 51H9.7306C8.3639 51 7.25214 49.8903 7.25214 48.5261V30.1046H2.47845C1.11176 30.1046 0 28.9945 0 27.6307V19.7371C0 18.3729 1.11176 17.2632 2.47845 17.2632H7.25214V13.3103C7.25214 9.39091 8.48513 6.05633 10.8174 3.66765C13.1602 1.26807 16.4343 0 20.2857 0L26.5258 0.0101165C27.8902 0.0124512 29 1.12216 29 2.48401V9.81308C29 11.1773 27.8886 12.287 26.5223 12.287L22.3209 12.2885C21.0396 12.2885 20.7133 12.5449 20.6435 12.6235C20.5285 12.7539 20.3917 13.1224 20.3917 14.1399V17.2628H26.2066C26.6443 17.2628 27.0685 17.3706 27.4329 17.5737C28.2192 18.0122 28.708 18.8413 28.708 19.7374L28.7049 27.6311C28.7049 28.9945 27.5932 30.1042 26.2265 30.1042H20.3917V48.5261C20.3917 49.8903 19.2795 51 17.9128 51ZM10.2475 48.0102H17.3959V28.7661C17.3959 27.8552 18.1385 27.1144 19.0507 27.1144H25.7096L25.7123 20.253H19.0503C18.1382 20.253 17.3959 19.5122 17.3959 18.6013V14.1399C17.3959 12.9718 17.5148 11.6434 18.3982 10.645C19.4655 9.43799 21.1475 9.29869 22.3201 9.29869L26.0047 9.29713V2.99918L20.2833 2.98984C14.0938 2.98984 10.2475 6.94464 10.2475 13.3103V18.6013C10.2475 19.5118 9.50528 20.253 8.59311 20.253H2.99535V27.1144H8.59311C9.50528 27.1144 10.2475 27.8552 10.2475 28.7661V48.0102ZM26.52 2.99995H26.5204H26.52Z" fill="#2F2F2F"/>
</svg>
