<svg width="51" height="51" viewBox="0 0 51 51" fill="none" xmlns="http://www.w3.org/2000/svg">
<path fill-rule="evenodd" clip-rule="evenodd" d="M37.1948 0H13.8052C6.1929 0 0 6.1929 0 13.8052V37.1952C0 44.8071 6.1929 51 13.8052 51H37.1952C44.8071 51 51 44.8071 51 37.1952V13.8052C51 6.1929 44.8071 0 37.1948 0ZM48.0102 37.1952C48.0102 43.1585 43.1585 48.0102 37.1948 48.0102H13.8052C7.84151 48.0102 2.98984 43.1585 2.98984 37.1952V13.8052C2.98984 7.84151 7.84151 2.98984 13.8052 2.98984H37.1952C43.1585 2.98984 48.0102 7.84151 48.0102 13.8052V37.1952ZM25.5 11.5552C17.8106 11.5552 11.5551 17.8107 11.5551 25.5001C11.5551 33.1895 17.8106 39.445 25.5 39.445C33.1894 39.445 39.4449 33.1895 39.4449 25.5001C39.4449 17.8107 33.1894 11.5552 25.5 11.5552ZM25.5 36.4552C19.4596 36.4552 14.5449 31.5409 14.5449 25.5001C14.5449 19.4597 19.4596 14.545 25.5 14.545C31.5407 14.545 36.4551 19.4597 36.4551 25.5001C36.4551 31.5409 31.5407 36.4552 25.5 36.4552ZM35.6578 10.7231C35.6578 8.45115 37.5061 6.60254 39.7784 6.60254C42.0507 6.60254 43.8993 8.45076 43.8993 10.7231C43.8993 12.9954 42.0507 14.844 39.7784 14.844C37.5061 14.844 35.6578 12.9954 35.6578 10.7231ZM38.6477 10.7231C38.6477 11.3464 39.1551 11.8538 39.7784 11.8538C40.4021 11.8538 40.9095 11.3464 40.9095 10.7231C40.9095 10.0994 40.4021 9.59238 39.7784 9.59238C39.1551 9.59238 38.6477 10.0994 38.6477 10.7231Z" fill="#2F2F2F"/>
</svg>
