<svg width="150" height="57" viewBox="0 0 150 57" fill="none" xmlns="http://www.w3.org/2000/svg">
<path d="M0 3.84379C1.58005 3.84379 2.63367 4.89627 2.63367 6.47524V32.103C2.63367 33.6817 1.58005 34.734 0 34.734V35.7867H11.4291V35.734C22.0155 35.2075 27.3877 27.2086 27.3877 19.2628C27.3877 11.2641 22.0155 3.37006 11.4291 2.84407V2.79165H0V3.84388V3.84379ZM9.05905 34.5758V3.949H10.2706C17.2226 3.949 20.699 11.5795 20.699 19.2099C20.699 26.7875 17.2226 34.4704 10.2706 34.5757H9.05905V34.5758ZM40.7133 36.0494C44.4001 36.0494 49.1399 33.4706 49.1399 29.3663C49.1399 27.0509 47.8235 26.0509 46.4013 26.0509C44.7686 26.0509 42.9777 27.3669 42.9777 29.3663C45.4007 29.3663 45.9271 33.4706 42.0824 33.5235C39.1859 33.2604 36.131 30.3664 36.131 23.9459V23.8932H49.5085C49.5085 19.5255 47.5601 11.737 40.9764 11.737C25.808 11.737 25.4919 36.0494 40.7133 36.0494L40.7133 36.0494ZM36.1835 22.5252C36.2889 20.1042 37.1317 13.0529 40.7133 13.0529C43.1885 13.0529 43.7679 19.2627 43.3994 22.5252H36.1835ZM61.6225 35.7865V34.7338C60.0424 34.7338 58.9888 33.6815 58.9888 32.1028V0.633262H57.883C56.1448 2.26465 53.5641 3.00133 51.2467 3.00133C50.8255 3.00133 50.4567 3.00133 50.0352 2.94891V4.00114C51.6152 4.00114 52.6689 5.05411 52.6689 6.63258V32.1027C52.6689 33.6815 51.6152 34.7337 50.0352 34.7337V35.7864H61.6225V35.7865ZM74.7368 35.7865V34.7338C73.1565 34.7338 72.1034 33.6815 72.1034 32.1028V21.0518C72.1034 16.5259 73.8416 13.5789 75.4217 13.5789C76.6856 13.5789 77.8439 15.579 77.8439 20.2622V32.3657C77.8439 33.7866 76.8963 34.7338 75.4741 34.7338V35.7865H86.5345V34.7338C85.1123 34.7338 84.1646 33.7866 84.1646 32.3657V21.5776C84.1646 21.1045 84.1646 20.5777 84.1646 19.9993C84.375 16.105 85.9551 13.6316 87.4297 13.6316C88.6942 13.6316 89.8527 15.579 89.8527 20.2622V32.6286C89.8527 41.6805 94.6453 45.6797 99.754 45.6797C108.287 45.6797 108.655 37.5227 103.125 37.5227C101.387 37.5227 100.439 38.9437 100.439 40.2068C100.491 40.2068 100.597 40.2068 100.65 40.2068C102.914 40.2068 102.44 44.3643 99.9124 44.3643C96.489 44.3643 96.1727 40.9435 96.1727 35.9969V21.5775C96.1727 17.9468 96.0672 11.8953 88.9045 11.8953C86.008 11.8953 84.3223 13.6842 83.4795 15.9474C82.6368 13.7371 80.8464 11.8953 76.8963 11.8953C74.5789 11.8953 73.0513 13.0004 72.1034 14.6313V12.0528H70.9973C69.2594 13.6842 66.6787 14.4209 64.3613 14.4209C63.9396 14.4209 63.5711 14.4209 63.1498 14.3685V15.4207C64.7299 15.4207 65.783 16.4732 65.783 18.0521V32.1028C65.783 33.6815 64.7299 34.7338 63.1498 34.7338V35.7865H74.7368L74.7368 35.7865ZM99.6491 15.4207C101.229 15.4207 102.282 16.4732 102.282 18.0522V32.1029C102.282 33.6816 101.229 34.7338 99.6491 34.7338V35.7866H111.236V34.7338C109.656 34.7338 108.603 33.6816 108.603 32.1029V12.0529H107.444C105.706 13.6843 103.178 14.421 100.861 14.421C100.439 14.421 100.07 14.421 99.6491 14.3686V15.4208V15.4207ZM106.075 10.4217C110.92 10.4217 110.92 3.58039 106.075 3.58039C101.176 3.58039 101.176 10.4217 106.075 10.4217ZM112.763 14.3685V15.4207C114.344 15.4207 115.397 16.4732 115.397 18.0522V32.1029C115.397 33.6816 114.344 34.7338 112.763 34.7338V35.7866H124.35V34.7338C122.77 34.7338 121.717 33.6816 121.717 32.1029V21.7359C122.454 14.421 130.249 2.05492 136.464 2.05492C138.518 2.05492 139.15 5.94853 134.621 5.94853C134.621 7.94863 136.359 9.47469 137.992 9.47469C144.048 9.47469 143.732 0.160156 136.464 0.160156C130.881 0.160156 124.614 8.36928 121.717 15.7366V12.053H120.611C118.873 13.6843 116.292 14.421 113.975 14.421C113.553 14.421 113.184 14.421 112.763 14.3686L112.763 14.3685ZM127.089 30.261C127.089 33.7867 130.881 36.155 134.831 36.155C137.57 36.155 139.677 35.1023 141.046 33.4707C141.941 35.1552 143.732 35.997 145.523 35.997C147.788 35.997 150 34.6287 150 32.1553H148.841C148.841 33.1554 148.262 33.7867 147.735 33.7867C147.261 33.7867 146.84 33.3134 146.84 32.1029V24.209C146.84 15.9999 144.944 11.5269 137.992 11.5269C127.142 11.5269 127.668 20.7363 132.935 20.7363C134.726 20.7363 136.253 19.7887 136.253 17.7893C132.619 17.3679 133.251 13.0005 135.99 13.0005C139.624 13.0005 140.414 16.947 140.572 20.8409C137.886 23.9459 127.089 23.2092 127.089 30.261H127.089ZM140.572 23.0512C140.572 24.2615 140.52 25.4195 140.52 26.2618V31.0501C139.624 32.892 138.097 33.8391 136.78 33.8391C135.2 33.8391 133.883 32.6286 133.883 30.261C133.883 25.998 138.202 25.1567 140.572 23.0512Z" fill="#2B2A29"/>
<path d="M43.5199 56.7741C44.5328 56.7741 45.0507 56.5554 45.4882 56.1415C45.891 55.762 46.1328 55.233 46.1328 54.6229C46.1328 54.2437 46.0406 53.8985 45.8565 53.5994C45.6953 53.3238 45.4535 53.1169 45.1314 52.9673V52.8982C45.3271 52.7601 45.4882 52.5756 45.5916 52.346C45.6953 52.1275 45.7416 51.8976 45.7416 51.6789C45.7416 51.0925 45.5459 50.7016 45.2349 50.4135C44.7859 50.0114 44.1415 49.873 43.4392 49.873H40.1007V56.7741H43.5199ZM44.7859 54.6119C44.7859 54.9225 44.6939 55.1641 44.4983 55.3134C44.2794 55.4972 43.9569 55.5663 43.5886 55.5663H41.4594V53.6803H43.7155C44.222 53.6803 44.4176 53.8178 44.5903 54.0021C44.7169 54.1516 44.7859 54.382 44.7859 54.6119H44.7859ZM44.3944 51.7823C44.3944 52.0007 44.3257 52.1735 44.1987 52.2886C44.0493 52.4151 43.8652 52.4843 43.6463 52.4843H41.4594V51.0808H43.4852C43.819 51.0808 44.0608 51.1497 44.1872 51.2765C44.3257 51.3914 44.3944 51.5639 44.3944 51.7823ZM52.5817 56.7741H58.1533V55.5206H53.9746V53.7954H57.5662V52.5417H53.9746V51.1382H57.9922V49.873H52.5817V56.7741H52.5817ZM67.3768 49.873L64.3146 56.7741H65.7762L66.3291 55.5436H69.7941L70.358 56.7741H71.8431L68.7809 49.873H67.3768H67.3768ZM67.9866 51.2878H68.0901L69.2759 54.2899H66.8586L67.9866 51.2878H67.9866ZM84.0822 53.7495V49.8731H82.689V53.8179C82.689 54.4504 82.5049 54.8534 82.2288 55.1177C81.9177 55.4288 81.5035 55.624 81.0428 55.624C80.5713 55.624 80.1798 55.463 79.8687 55.1295C79.5814 54.8534 79.3852 54.4277 79.3852 53.8179V49.8731H77.9923V53.7495C77.9923 54.7156 78.3149 55.4742 78.8673 56.0384C79.3853 56.5554 80.1106 56.8889 81.0428 56.8889C81.9177 56.8889 82.6086 56.5901 83.1495 56.0724C83.7366 55.5087 84.0822 54.7498 84.0822 53.7495ZM90.3469 51.1155H92.8334V56.7741H94.1801V51.1155H96.6666V49.8731H90.3469V51.1155H90.3469ZM106.961 56.7741V55.1177L109.896 49.8731H108.388L106.339 53.6574H106.224L104.209 49.8731H102.621L105.602 55.1062V56.7741H106.961H106.961Z" fill="#2B2A29"/>
</svg>
